<svg xmlns="http://www.w3.org/2000/svg" viewBox="0 0 149.77 480"><defs><style>.cls-1{fill:#4e7266;}.cls-2{fill:#e8902c;}</style></defs><g id="OBJECTS"><path class="cls-1" d="M48.47,478.2c-7-17.67-8.51-37.39-6.64-56.64s7.15-38.29,14-56.82S70.6,328,77.93,309.21a357,357,0,0,0,17.76-58c7.4-34.13,10.21-72,5.74-108.75C97.14,105.71,84.56,70.54,66,43.72c-.57-.85-1,0-.61.88,32.71,68.66,38.74,149.28,18,222.63C72.5,306.86,51.61,343,39.3,383.39c-6.24,21-10,43.08-8.37,65.49.16,3.44.64,6.86,1,10.25a86.07,86.07,0,0,0,2.09,9.95,49.81,49.81,0,0,0,8.33,17.59c3.14,3.94,5.67,4,6.89,2.09a7.21,7.21,0,0,0,.76-4.25A24.63,24.63,0,0,0,48.47,478.2Z" transform="translate(-19.82 -10)"/><path class="cls-2" d="M76.28,61.39c-2.12-5.49-6.88-9.5-11.72-12.86s-10-6.4-13.79-10.94c-4.28-5.16-6.34-12.5-4-18.76S56.7,8.3,63,10.66c3.69,1.38,6.4,4.67,7.92,8.29a38.47,38.47,0,0,1,2.34,11.51C74,39.43,74.25,48.45,76.28,61.39Z" transform="translate(-19.82 -10)"/><path class="cls-1" d="M97.13,134.14A81.86,81.86,0,0,1,104.46,96a79.74,79.74,0,0,1,24.27-30.87c.92-.73.62-1.17-.34-.47a84.68,84.68,0,0,0-35.75,69.61c.13,4.72,1.64,6.92,2.74,6.76S97.41,138.55,97.13,134.14Z" transform="translate(-19.82 -10)"/><path class="cls-2" d="M115.56,76.2c4.29-7.74,8.18-19.91,14-26.56,2.63-3,6.38-6,10.19-4.83,2.74.82,4.49,3.6,5,6.41,1.27,6.69-1,12.6-7,15.89S123,76.11,115.56,76.2Z" transform="translate(-19.82 -10)"/><path class="cls-1" d="M98,153.55a123.9,123.9,0,0,0-16.86-29c-6.87-8.76-15-16.79-24.85-22-.85-.48-1.09,0-.28.5,9.43,5.72,16.87,14.11,23,23.08a130.31,130.31,0,0,1,14.77,29.05C96.13,162.13,100.78,160.81,98,153.55Z" transform="translate(-19.82 -10)"/><path class="cls-2" d="M71.08,114.38c-2.59-2.8-7.43-11.49-8.57-15.13s-2.18-7.39-4.32-10.55S52.53,83,48.72,83.23c-5.57.28-9.47,6.63-8.47,12.12s5.7,9.73,10.9,11.74S65.56,114.29,71.08,114.38Z" transform="translate(-19.82 -10)"/><path class="cls-1" d="M100.76,204.9a114.93,114.93,0,0,1,40.31-48.18c.77-.53.5-1-.31-.49a115.62,115.62,0,0,0-44,46.73C93.44,209.76,98,211.47,100.76,204.9Z" transform="translate(-19.82 -10)"/><path class="cls-1" d="M92.48,239.85a63.39,63.39,0,0,0-5.4-18.58c-2.59-5.83-5.61-11.36-8.51-16.9a141,141,0,0,1-7.85-16.94,47.33,47.33,0,0,1-3.21-18.23c0-1.09-.53-1.15-.57,0a48.92,48.92,0,0,0,2.31,18.75,142.36,142.36,0,0,0,7,17.61C81.37,216.9,87.16,228.27,88,240.27c.23,4,1.19,6.13,2.42,6.23.58,0,1.16-.47,1.58-1.58A10.31,10.31,0,0,0,92.48,239.85Z" transform="translate(-19.82 -10)"/><path class="cls-1" d="M82.64,296.73a189.92,189.92,0,0,0,43.92-36.19A222.52,222.52,0,0,0,158.81,214c.79-1.47.32-1.71-.51-.28-18.45,32.78-45.31,61-77.91,79.14-5.56,3.07-7.92,5.49-7.39,6.58S77,300.05,82.64,296.73Z" transform="translate(-19.82 -10)"/><path class="cls-1" d="M65.92,318.19c-5.35-14.34-12.17-27.86-17.3-42S40,247.08,41.88,232c.15-1.31-.36-1.4-.57-.08-2.48,15.1.37,30.59,4.83,45.08s10.78,28.47,15.55,42.67c1.62,4.85,3.44,7,4.57,6.63S67.75,323.12,65.92,318.19Z" transform="translate(-19.82 -10)"/><path class="cls-1" d="M42.85,412.36a68,68,0,0,1,14.76-16.29c5.75-4.78,12-9,18.23-13.39a147.78,147.78,0,0,0,17.92-14.27c5.51-5.29,10.34-11.47,13.25-18.56.54-1.24,0-1.43-.52-.23-3.15,6.87-8.15,12.71-13.79,17.65A145.2,145.2,0,0,1,74.39,380.5c-6.4,4-12.91,8.06-19,12.74A69.75,69.75,0,0,0,39.06,410c-3,4.61-2.78,7.71-1.75,8.09S40.3,416.58,42.85,412.36Z" transform="translate(-19.82 -10)"/><path class="cls-1" d="M42.55,390.1c-2.06-13-7.43-24.8-11.23-36.83a89.78,89.78,0,0,1-4-18.44,44.77,44.77,0,0,1,1.85-18.68c.34-1.06-.14-1.26-.54-.2a46.73,46.73,0,0,0-2.86,19,92.35,92.35,0,0,0,3,19.06c3.22,12.43,7.87,24.41,9.3,36.72.47,4.18,1.61,6.24,2.81,6.22S43.23,394.59,42.55,390.1Z" transform="translate(-19.82 -10)"/><path class="cls-2" d="M27,326.23A27.52,27.52,0,0,1,22,297.1a14.85,14.85,0,0,1,4.57-6.21,8,8,0,0,1,7.36-1.3c3.5,1.34,5.1,5.47,5.25,9.22a27.37,27.37,0,0,1-3.77,14.06C33,317.17,29.88,321,27,326.23Z" transform="translate(-19.82 -10)"/><path class="cls-2" d="M41.41,249.82A24,24,0,0,1,34,225.22a15.51,15.51,0,0,1,3.81-6.77,9.27,9.27,0,0,1,7.1-2.77c4.35.38,7.64,4.59,8.2,8.93s-1,8.66-3.09,12.52A85.29,85.29,0,0,1,41.41,249.82Z" transform="translate(-19.82 -10)"/><path class="cls-2" d="M144.19,239.19c.07-8.47.32-17.54,5.25-24.43,2.66-3.71,7.06-6.62,11.58-5.95,5.18.76,8.8,6.25,8.56,11.48s-3.62,9.92-7.88,13S152.35,237.93,144.19,239.19Z" transform="translate(-19.82 -10)"/><path class="cls-2" d="M91.76,369.32c-.34-6-.67-12.09.39-18s3.65-11.78,8.27-15.64c2.89-2.41,6.72-4,10.41-3.24,4.35.87,7.59,4.84,8.71,9.13,1.71,6.58-.94,13.81-5.74,18.62S102.35,367.62,91.76,369.32Z" transform="translate(-19.82 -10)"/><path class="cls-2" d="M70.56,190.2q1.93-10.57,3.86-21.13a30.19,30.19,0,0,0,.72-8.08,10.05,10.05,0,0,0-3.5-7.08c-3.47-2.68-8.73-1.71-12.16,1-5.47,4.36-7.18,12.42-5,19.08S62.05,185.93,70.56,190.2Z" transform="translate(-19.82 -10)"/><path class="cls-2" d="M120.63,172.53a57.94,57.94,0,0,1,5.5-14.58,26,26,0,0,1,11-10.75c4.71-2.22,10.49-2.48,15.06,0s7.54,8,6.46,13.08c-1,4.58-4.9,8.09-9.25,9.85s-9.12,2-13.8,2.33A92.14,92.14,0,0,1,120.63,172.53Z" transform="translate(-19.82 -10)"/></g></svg>